<?xml version="1.0" encoding="UTF-8" standalone="no"?>
<!DOCTYPE svg PUBLIC "-//W3C//DTD SVG 1.1//EN" "http://www.w3.org/Graphics/SVG/1.1/DTD/svg11.dtd">
<svg width="100%" height="100%" viewBox="0 0 918 918" version="1.1" xmlns="http://www.w3.org/2000/svg" xmlns:xlink="http://www.w3.org/1999/xlink" xml:space="preserve" xmlns:serif="http://www.serif.com/" style="fill-rule:evenodd;clip-rule:evenodd;stroke-linecap:round;stroke-linejoin:round;stroke-miterlimit:1.5;">
    <g transform="matrix(1,0,0,1,-187.734125,-233.375)">
        <g transform="matrix(1.082918,0,0,0.963182,-583.922126,-276.897238)">
            <path d="M1545,705.153L1545,1306.535C1545,1394.374 1481.571,1465.688 1403.444,1465.688L868.556,1465.688C790.429,1465.688 727,1394.374 727,1306.535L727,705.153C727,617.314 790.429,546 868.556,546L1403.444,546C1481.571,546 1545,617.314 1545,705.153Z" style="fill:white;stroke:black;stroke-width:30.49px;"/>
        </g>
        <g transform="matrix(2.180497,0,0,1.968504,-932.756511,-1170.23622)">
            <ellipse cx="629.5" cy="820" rx="32.5" ry="36"/>
        </g>
        <g transform="matrix(2.180497,0,0,1.968504,-932.756511,-922.259843)">
            <ellipse cx="629.5" cy="820" rx="32.5" ry="36"/>
        </g>
        <g transform="matrix(2.180497,0,0,1.968504,-932.756511,-674.23622)">
            <ellipse cx="629.5" cy="820" rx="32.5" ry="36"/>
        </g>
        <g transform="matrix(2.180497,0,0,1.968504,-519.756511,-1170.23622)">
            <ellipse cx="629.5" cy="820" rx="32.5" ry="36"/>
        </g>
        <g transform="matrix(2.180497,0,0,1.968504,-519.756511,-922.259843)">
            <ellipse cx="629.5" cy="820" rx="32.5" ry="36"/>
        </g>
        <g transform="matrix(2.180497,0,0,1.968504,-519.756511,-674.23622)">
            <ellipse cx="629.5" cy="820" rx="32.5" ry="36"/>
        </g>
    </g>
</svg>
